<mxfile host="app.diagrams.net" modified="2022-10-07T02:11:54.007Z" agent="5.0 (Windows NT 10.0; Win64; x64) AppleWebKit/537.36 (KHTML, like Gecko) Chrome/105.0.0.0 Safari/537.36" etag="k3n3VZM4BfVBjR2PxcC9" version="20.0.4" type="github" pages="5">
  <diagram id="1iWLaSzN3J1ZeJ7l9204" name="geofence">
    <mxGraphModel dx="2565" dy="1056" grid="1" gridSize="10" guides="1" tooltips="1" connect="1" arrows="1" fold="1" page="1" pageScale="1" pageWidth="827" pageHeight="1169" math="0" shadow="0">
      <root>
        <mxCell id="0" />
        <mxCell id="1" parent="0" />
        <mxCell id="qN-WeFZW97pIgA3dtIkU-3" value="mavlink&lt;br style=&quot;font-size: 15px;&quot;&gt;message" style="text;html=1;align=center;verticalAlign=middle;resizable=0;points=[];autosize=1;strokeColor=none;fillColor=none;fontSize=15;" parent="1" vertex="1">
          <mxGeometry x="41.25" y="597.5" width="80" height="50" as="geometry" />
        </mxCell>
        <mxCell id="qN-WeFZW97pIgA3dtIkU-35" style="edgeStyle=orthogonalEdgeStyle;rounded=0;orthogonalLoop=1;jettySize=auto;html=1;exitX=1;exitY=0.7;exitDx=0;exitDy=0;entryX=0;entryY=0.5;entryDx=0;entryDy=0;fontSize=15;" parent="1" source="qN-WeFZW97pIgA3dtIkU-7" target="qN-WeFZW97pIgA3dtIkU-27" edge="1">
          <mxGeometry relative="1" as="geometry">
            <Array as="points">
              <mxPoint x="111" y="575" />
            </Array>
          </mxGeometry>
        </mxCell>
        <mxCell id="qN-WeFZW97pIgA3dtIkU-7" value="" style="shape=message;html=1;whiteSpace=wrap;html=1;outlineConnect=0;fontSize=15;" parent="1" vertex="1">
          <mxGeometry x="51.25" y="542.5" width="60" height="50" as="geometry" />
        </mxCell>
        <mxCell id="qN-WeFZW97pIgA3dtIkU-14" value="Mavlink&#xa;Module" style="shape=module;align=left;spacingLeft=20;align=center;verticalAlign=top;fontSize=15;" parent="1" vertex="1">
          <mxGeometry x="180" y="210" width="146" height="60" as="geometry" />
        </mxCell>
        <mxCell id="qN-WeFZW97pIgA3dtIkU-15" value="Integrity&#xa;Module" style="shape=module;align=left;spacingLeft=20;align=center;verticalAlign=top;fontSize=15;" parent="1" vertex="1">
          <mxGeometry x="366" y="210" width="146" height="60" as="geometry" />
        </mxCell>
        <mxCell id="qN-WeFZW97pIgA3dtIkU-16" value="" style="line;strokeWidth=2;direction=south;html=1;fontSize=15;" parent="1" vertex="1">
          <mxGeometry x="248" y="270" width="10" height="480" as="geometry" />
        </mxCell>
        <mxCell id="qN-WeFZW97pIgA3dtIkU-17" value="" style="line;strokeWidth=2;direction=south;html=1;fontSize=15;" parent="1" vertex="1">
          <mxGeometry x="434" y="270" width="10" height="480" as="geometry" />
        </mxCell>
        <mxCell id="qN-WeFZW97pIgA3dtIkU-18" value="" style="shape=datastore;whiteSpace=wrap;html=1;fontSize=15;" parent="1" vertex="1">
          <mxGeometry x="730" y="470" width="60" height="60" as="geometry" />
        </mxCell>
        <mxCell id="qN-WeFZW97pIgA3dtIkU-41" style="edgeStyle=orthogonalEdgeStyle;rounded=0;orthogonalLoop=1;jettySize=auto;html=1;exitX=0;exitY=0;exitDx=55;exitDy=40;exitPerimeter=0;entryX=0;entryY=0.5;entryDx=0;entryDy=0;fontSize=15;" parent="1" target="qN-WeFZW97pIgA3dtIkU-28" edge="1">
          <mxGeometry relative="1" as="geometry">
            <Array as="points">
              <mxPoint x="108.75" y="410" />
            </Array>
            <mxPoint x="108.75" y="415" as="sourcePoint" />
          </mxGeometry>
        </mxCell>
        <mxCell id="qN-WeFZW97pIgA3dtIkU-21" value="dataman" style="text;html=1;strokeColor=none;fillColor=none;align=center;verticalAlign=middle;whiteSpace=wrap;rounded=0;fontSize=15;" parent="1" vertex="1">
          <mxGeometry x="730" y="530" width="60" height="30" as="geometry" />
        </mxCell>
        <mxCell id="qN-WeFZW97pIgA3dtIkU-27" value="MavlinkMission&lt;br&gt;Manager" style="html=1;fontSize=15;" parent="1" vertex="1">
          <mxGeometry x="210" y="490" width="110" height="170" as="geometry" />
        </mxCell>
        <mxCell id="qN-WeFZW97pIgA3dtIkU-28" value="hmac_add" style="html=1;fontSize=15;" parent="1" vertex="1">
          <mxGeometry x="398.75" y="385" width="110" height="50" as="geometry" />
        </mxCell>
        <mxCell id="qN-WeFZW97pIgA3dtIkU-29" value="Dataman&#xa;Module" style="shape=module;align=left;spacingLeft=20;align=center;verticalAlign=top;fontSize=15;" parent="1" vertex="1">
          <mxGeometry x="540" y="210" width="146" height="60" as="geometry" />
        </mxCell>
        <mxCell id="qN-WeFZW97pIgA3dtIkU-30" value="" style="line;strokeWidth=2;direction=south;html=1;fontSize=15;" parent="1" vertex="1">
          <mxGeometry x="608" y="270" width="10" height="470" as="geometry" />
        </mxCell>
        <mxCell id="qN-WeFZW97pIgA3dtIkU-40" style="edgeStyle=orthogonalEdgeStyle;rounded=0;orthogonalLoop=1;jettySize=auto;html=1;exitX=1;exitY=0.5;exitDx=0;exitDy=0;entryX=0;entryY=0.7;entryDx=0;entryDy=0;fontSize=15;" parent="1" source="qN-WeFZW97pIgA3dtIkU-31" target="qN-WeFZW97pIgA3dtIkU-18" edge="1">
          <mxGeometry relative="1" as="geometry">
            <Array as="points">
              <mxPoint x="668" y="512" />
            </Array>
          </mxGeometry>
        </mxCell>
        <mxCell id="qN-WeFZW97pIgA3dtIkU-31" value="dm_write" style="html=1;fontSize=15;labelBorderColor=default;" parent="1" vertex="1">
          <mxGeometry x="558" y="484" width="110" height="50" as="geometry" />
        </mxCell>
        <mxCell id="qN-WeFZW97pIgA3dtIkU-58" value="msg" style="swimlane;fontStyle=1;align=center;verticalAlign=top;childLayout=stackLayout;horizontal=1;startSize=26;horizontalStack=0;resizeParent=1;resizeParentMax=0;resizeLast=0;collapsible=1;marginBottom=0;fontSize=15;" parent="1" vertex="1">
          <mxGeometry x="-350" y="378" width="370" height="86" as="geometry" />
        </mxCell>
        <mxCell id="qN-WeFZW97pIgA3dtIkU-59" value="+ msgid: SERIAL_CONTROL" style="text;strokeColor=none;fillColor=none;align=left;verticalAlign=top;spacingLeft=4;spacingRight=4;overflow=hidden;rotatable=0;points=[[0,0.5],[1,0.5]];portConstraint=eastwest;fontSize=15;" parent="qN-WeFZW97pIgA3dtIkU-58" vertex="1">
          <mxGeometry y="26" width="370" height="26" as="geometry" />
        </mxCell>
        <mxCell id="qN-WeFZW97pIgA3dtIkU-60" value="" style="line;strokeWidth=1;fillColor=none;align=left;verticalAlign=middle;spacingTop=-1;spacingLeft=3;spacingRight=3;rotatable=0;labelPosition=right;points=[];portConstraint=eastwest;fontSize=15;" parent="qN-WeFZW97pIgA3dtIkU-58" vertex="1">
          <mxGeometry y="52" width="370" height="8" as="geometry" />
        </mxCell>
        <mxCell id="qN-WeFZW97pIgA3dtIkU-61" value="+ payload: {filename}" style="text;strokeColor=none;fillColor=none;align=left;verticalAlign=top;spacingLeft=4;spacingRight=4;overflow=hidden;rotatable=0;points=[[0,0.5],[1,0.5]];portConstraint=eastwest;fontSize=15;" parent="qN-WeFZW97pIgA3dtIkU-58" vertex="1">
          <mxGeometry y="60" width="370" height="26" as="geometry" />
        </mxCell>
        <mxCell id="ZRXqo3sEkYcFQV_ImfXS-8" style="edgeStyle=orthogonalEdgeStyle;rounded=0;orthogonalLoop=1;jettySize=auto;html=1;exitX=0;exitY=1;exitDx=0;exitDy=0;entryX=0;entryY=0.75;entryDx=0;entryDy=0;" edge="1" parent="1" source="Tty8Oy4p8M6LU98x6wec-1" target="qN-WeFZW97pIgA3dtIkU-31">
          <mxGeometry relative="1" as="geometry">
            <Array as="points">
              <mxPoint x="320" y="522" />
            </Array>
          </mxGeometry>
        </mxCell>
        <mxCell id="Tty8Oy4p8M6LU98x6wec-1" value="call" style="text;html=1;strokeColor=none;fillColor=none;align=center;verticalAlign=middle;whiteSpace=wrap;rounded=0;fontSize=15;" parent="1" vertex="1">
          <mxGeometry x="320" y="490" width="60" height="30" as="geometry" />
        </mxCell>
        <mxCell id="BU_VainXJYD3QMgu4RDL-3" value="mavlink&lt;br style=&quot;font-size: 15px;&quot;&gt;message" style="text;html=1;align=center;verticalAlign=middle;resizable=0;points=[];autosize=1;strokeColor=none;fillColor=none;fontSize=15;" vertex="1" parent="1">
          <mxGeometry x="41.25" y="430" width="80" height="50" as="geometry" />
        </mxCell>
        <mxCell id="BU_VainXJYD3QMgu4RDL-4" value="" style="shape=message;html=1;whiteSpace=wrap;html=1;outlineConnect=0;fontSize=15;" vertex="1" parent="1">
          <mxGeometry x="51.25" y="378" width="60" height="50" as="geometry" />
        </mxCell>
        <mxCell id="BU_VainXJYD3QMgu4RDL-5" value="msg" style="swimlane;fontStyle=1;align=center;verticalAlign=top;childLayout=stackLayout;horizontal=1;startSize=26;horizontalStack=0;resizeParent=1;resizeParentMax=0;resizeLast=0;collapsible=1;marginBottom=0;fontSize=15;" vertex="1" parent="1">
          <mxGeometry x="-350" y="545.5" width="370" height="52" as="geometry" />
        </mxCell>
        <mxCell id="BU_VainXJYD3QMgu4RDL-6" value="+ msgid:MISSION_*" style="text;strokeColor=none;fillColor=none;align=left;verticalAlign=top;spacingLeft=4;spacingRight=4;overflow=hidden;rotatable=0;points=[[0,0.5],[1,0.5]];portConstraint=eastwest;fontSize=15;" vertex="1" parent="BU_VainXJYD3QMgu4RDL-5">
          <mxGeometry y="26" width="370" height="26" as="geometry" />
        </mxCell>
        <mxCell id="ZRXqo3sEkYcFQV_ImfXS-14" style="edgeStyle=orthogonalEdgeStyle;rounded=0;orthogonalLoop=1;jettySize=auto;html=1;exitX=1;exitY=0.5;exitDx=0;exitDy=0;entryX=0;entryY=0.5;entryDx=0;entryDy=0;" edge="1" parent="1" target="ZRXqo3sEkYcFQV_ImfXS-13">
          <mxGeometry relative="1" as="geometry">
            <mxPoint x="320" y="595" as="sourcePoint" />
            <Array as="points">
              <mxPoint x="320" y="625" />
            </Array>
          </mxGeometry>
        </mxCell>
        <mxCell id="ZRXqo3sEkYcFQV_ImfXS-15" style="edgeStyle=orthogonalEdgeStyle;rounded=0;orthogonalLoop=1;jettySize=auto;html=1;exitX=1;exitY=0.5;exitDx=0;exitDy=0;entryX=0;entryY=0.5;entryDx=0;entryDy=0;entryPerimeter=0;" edge="1" parent="1" source="ZRXqo3sEkYcFQV_ImfXS-13" target="ZRXqo3sEkYcFQV_ImfXS-16">
          <mxGeometry relative="1" as="geometry">
            <mxPoint x="720" y="595" as="targetPoint" />
          </mxGeometry>
        </mxCell>
        <mxCell id="ZRXqo3sEkYcFQV_ImfXS-13" value="hmac_add" style="html=1;fontSize=15;" vertex="1" parent="1">
          <mxGeometry x="390" y="600" width="110" height="50" as="geometry" />
        </mxCell>
        <mxCell id="ZRXqo3sEkYcFQV_ImfXS-16" value="HMAC&lt;br&gt;file" style="shape=note;whiteSpace=wrap;html=1;backgroundOutline=1;darkOpacity=0.05;size=21;" vertex="1" parent="1">
          <mxGeometry x="730" y="585" width="60" height="80" as="geometry" />
        </mxCell>
      </root>
    </mxGraphModel>
  </diagram>
  <diagram id="W8E7HPKX0FRNSHUZYY1I" name="rally">
    <mxGraphModel dx="4737" dy="2375" grid="1" gridSize="10" guides="1" tooltips="1" connect="1" arrows="1" fold="1" page="1" pageScale="1" pageWidth="827" pageHeight="1169" math="0" shadow="0">
      <root>
        <mxCell id="0" />
        <mxCell id="1" parent="0" />
        <mxCell id="MjPEijqR4NNbJWG7MUDi-1" value="mavlink&lt;br style=&quot;font-size: 15px;&quot;&gt;message" style="text;html=1;align=center;verticalAlign=middle;resizable=0;points=[];autosize=1;strokeColor=none;fillColor=none;fontSize=15;" parent="1" vertex="1">
          <mxGeometry x="41.25" y="535" width="80" height="50" as="geometry" />
        </mxCell>
        <mxCell id="MjPEijqR4NNbJWG7MUDi-2" style="edgeStyle=orthogonalEdgeStyle;rounded=0;orthogonalLoop=1;jettySize=auto;html=1;exitX=1;exitY=0.7;exitDx=0;exitDy=0;entryX=0;entryY=0.5;entryDx=0;entryDy=0;fontSize=15;" parent="1" source="MjPEijqR4NNbJWG7MUDi-3" target="MjPEijqR4NNbJWG7MUDi-14" edge="1">
          <mxGeometry relative="1" as="geometry" />
        </mxCell>
        <mxCell id="MjPEijqR4NNbJWG7MUDi-3" value="" style="shape=message;html=1;whiteSpace=wrap;html=1;outlineConnect=0;fontSize=15;" parent="1" vertex="1">
          <mxGeometry x="51.25" y="480" width="60" height="50" as="geometry" />
        </mxCell>
        <mxCell id="MjPEijqR4NNbJWG7MUDi-5" value="Mavlink&#xa;Module" style="shape=module;align=left;spacingLeft=20;align=center;verticalAlign=top;fontSize=15;" parent="1" vertex="1">
          <mxGeometry x="180" y="210" width="146" height="60" as="geometry" />
        </mxCell>
        <mxCell id="MjPEijqR4NNbJWG7MUDi-7" value="" style="line;strokeWidth=2;direction=south;html=1;fontSize=15;" parent="1" vertex="1">
          <mxGeometry x="248" y="270" width="10" height="370" as="geometry" />
        </mxCell>
        <mxCell id="MjPEijqR4NNbJWG7MUDi-9" value="" style="shape=datastore;whiteSpace=wrap;html=1;fontSize=15;" parent="1" vertex="1">
          <mxGeometry x="592" y="440" width="60" height="60" as="geometry" />
        </mxCell>
        <mxCell id="MjPEijqR4NNbJWG7MUDi-12" value="dataman" style="text;html=1;strokeColor=none;fillColor=none;align=center;verticalAlign=middle;whiteSpace=wrap;rounded=0;fontSize=15;" parent="1" vertex="1">
          <mxGeometry x="592" y="500" width="60" height="30" as="geometry" />
        </mxCell>
        <mxCell id="MjPEijqR4NNbJWG7MUDi-13" style="edgeStyle=orthogonalEdgeStyle;rounded=0;orthogonalLoop=1;jettySize=auto;html=1;exitX=1;exitY=0.5;exitDx=0;exitDy=0;entryX=0;entryY=0.5;entryDx=0;entryDy=0;fontSize=15;" parent="1" source="MjPEijqR4NNbJWG7MUDi-14" target="MjPEijqR4NNbJWG7MUDi-20" edge="1">
          <mxGeometry relative="1" as="geometry" />
        </mxCell>
        <mxCell id="MjPEijqR4NNbJWG7MUDi-14" value="MavlinkMission&lt;br&gt;Manager" style="html=1;fontSize=15;" parent="1" vertex="1">
          <mxGeometry x="210" y="490" width="110" height="50" as="geometry" />
        </mxCell>
        <mxCell id="MjPEijqR4NNbJWG7MUDi-17" value="Dataman&#xa;Module" style="shape=module;align=left;spacingLeft=20;align=center;verticalAlign=top;fontSize=15;" parent="1" vertex="1">
          <mxGeometry x="380" y="210" width="146" height="60" as="geometry" />
        </mxCell>
        <mxCell id="MjPEijqR4NNbJWG7MUDi-18" value="" style="line;strokeWidth=2;direction=south;html=1;fontSize=15;" parent="1" vertex="1">
          <mxGeometry x="460" y="270" width="10" height="370" as="geometry" />
        </mxCell>
        <mxCell id="MjPEijqR4NNbJWG7MUDi-19" style="edgeStyle=orthogonalEdgeStyle;rounded=0;orthogonalLoop=1;jettySize=auto;html=1;exitX=1;exitY=0.5;exitDx=0;exitDy=0;entryX=0;entryY=0.7;entryDx=0;entryDy=0;fontSize=15;" parent="1" source="MjPEijqR4NNbJWG7MUDi-20" target="MjPEijqR4NNbJWG7MUDi-9" edge="1">
          <mxGeometry relative="1" as="geometry" />
        </mxCell>
        <mxCell id="MjPEijqR4NNbJWG7MUDi-20" value="dm_write" style="html=1;fontSize=15;labelBorderColor=default;" parent="1" vertex="1">
          <mxGeometry x="410" y="490" width="110" height="50" as="geometry" />
        </mxCell>
        <mxCell id="MjPEijqR4NNbJWG7MUDi-21" value="msg" style="swimlane;fontStyle=1;align=center;verticalAlign=top;childLayout=stackLayout;horizontal=1;startSize=26;horizontalStack=0;resizeParent=1;resizeParentMax=0;resizeLast=0;collapsible=1;marginBottom=0;fontSize=15;" parent="1" vertex="1">
          <mxGeometry x="-360" y="480" width="370" height="86" as="geometry" />
        </mxCell>
        <mxCell id="MjPEijqR4NNbJWG7MUDi-22" value="+ msgid: MAVLINK_MSG_ID_MISSION_ITEM_(INT)" style="text;strokeColor=none;fillColor=none;align=left;verticalAlign=top;spacingLeft=4;spacingRight=4;overflow=hidden;rotatable=0;points=[[0,0.5],[1,0.5]];portConstraint=eastwest;fontSize=15;" parent="MjPEijqR4NNbJWG7MUDi-21" vertex="1">
          <mxGeometry y="26" width="370" height="26" as="geometry" />
        </mxCell>
        <mxCell id="MjPEijqR4NNbJWG7MUDi-23" value="" style="line;strokeWidth=1;fillColor=none;align=left;verticalAlign=middle;spacingTop=-1;spacingLeft=3;spacingRight=3;rotatable=0;labelPosition=right;points=[];portConstraint=eastwest;fontSize=15;" parent="MjPEijqR4NNbJWG7MUDi-21" vertex="1">
          <mxGeometry y="52" width="370" height="8" as="geometry" />
        </mxCell>
        <mxCell id="MjPEijqR4NNbJWG7MUDi-24" value="+ mission_type: MAV_MISSION_TYPE_RALLY" style="text;strokeColor=none;fillColor=none;align=left;verticalAlign=top;spacingLeft=4;spacingRight=4;overflow=hidden;rotatable=0;points=[[0,0.5],[1,0.5]];portConstraint=eastwest;fontSize=15;" parent="MjPEijqR4NNbJWG7MUDi-21" vertex="1">
          <mxGeometry y="60" width="370" height="26" as="geometry" />
        </mxCell>
        <mxCell id="MjPEijqR4NNbJWG7MUDi-26" value="call" style="text;html=1;strokeColor=none;fillColor=none;align=center;verticalAlign=middle;whiteSpace=wrap;rounded=0;fontSize=15;" parent="1" vertex="1">
          <mxGeometry x="320" y="490" width="60" height="30" as="geometry" />
        </mxCell>
      </root>
    </mxGraphModel>
  </diagram>
  <diagram name="mission" id="_UssVY5c-FsMCcvnqGuC">
    <mxGraphModel dx="2565" dy="1056" grid="1" gridSize="10" guides="1" tooltips="1" connect="1" arrows="1" fold="1" page="1" pageScale="1" pageWidth="827" pageHeight="1169" math="0" shadow="0">
      <root>
        <mxCell id="mM7fHw1ejmW5WXKp_zyd-0" />
        <mxCell id="mM7fHw1ejmW5WXKp_zyd-1" parent="mM7fHw1ejmW5WXKp_zyd-0" />
        <mxCell id="mM7fHw1ejmW5WXKp_zyd-2" value="mavlink&lt;br style=&quot;font-size: 15px;&quot;&gt;message" style="text;html=1;align=center;verticalAlign=middle;resizable=0;points=[];autosize=1;strokeColor=none;fillColor=none;fontSize=15;" parent="mM7fHw1ejmW5WXKp_zyd-1" vertex="1">
          <mxGeometry x="41.25" y="535" width="80" height="50" as="geometry" />
        </mxCell>
        <mxCell id="mM7fHw1ejmW5WXKp_zyd-3" style="edgeStyle=orthogonalEdgeStyle;rounded=0;orthogonalLoop=1;jettySize=auto;html=1;exitX=1;exitY=0.7;exitDx=0;exitDy=0;entryX=0;entryY=0.5;entryDx=0;entryDy=0;fontSize=15;" parent="mM7fHw1ejmW5WXKp_zyd-1" source="mM7fHw1ejmW5WXKp_zyd-4" target="mM7fHw1ejmW5WXKp_zyd-10" edge="1">
          <mxGeometry relative="1" as="geometry" />
        </mxCell>
        <mxCell id="mM7fHw1ejmW5WXKp_zyd-4" value="" style="shape=message;html=1;whiteSpace=wrap;html=1;outlineConnect=0;fontSize=15;" parent="mM7fHw1ejmW5WXKp_zyd-1" vertex="1">
          <mxGeometry x="51.25" y="480" width="60" height="50" as="geometry" />
        </mxCell>
        <mxCell id="mM7fHw1ejmW5WXKp_zyd-5" value="Mavlink&#xa;Module" style="shape=module;align=left;spacingLeft=20;align=center;verticalAlign=top;fontSize=15;" parent="mM7fHw1ejmW5WXKp_zyd-1" vertex="1">
          <mxGeometry x="180" y="210" width="146" height="60" as="geometry" />
        </mxCell>
        <mxCell id="mM7fHw1ejmW5WXKp_zyd-6" value="" style="line;strokeWidth=2;direction=south;html=1;fontSize=15;" parent="mM7fHw1ejmW5WXKp_zyd-1" vertex="1">
          <mxGeometry x="248" y="270" width="10" height="370" as="geometry" />
        </mxCell>
        <mxCell id="mM7fHw1ejmW5WXKp_zyd-7" value="" style="shape=datastore;whiteSpace=wrap;html=1;fontSize=15;" parent="mM7fHw1ejmW5WXKp_zyd-1" vertex="1">
          <mxGeometry x="592" y="440" width="60" height="60" as="geometry" />
        </mxCell>
        <mxCell id="mM7fHw1ejmW5WXKp_zyd-8" value="dataman" style="text;html=1;strokeColor=none;fillColor=none;align=center;verticalAlign=middle;whiteSpace=wrap;rounded=0;fontSize=15;" parent="mM7fHw1ejmW5WXKp_zyd-1" vertex="1">
          <mxGeometry x="592" y="500" width="60" height="30" as="geometry" />
        </mxCell>
        <mxCell id="mM7fHw1ejmW5WXKp_zyd-9" style="edgeStyle=orthogonalEdgeStyle;rounded=0;orthogonalLoop=1;jettySize=auto;html=1;exitX=1;exitY=0.5;exitDx=0;exitDy=0;entryX=0;entryY=0.5;entryDx=0;entryDy=0;fontSize=15;" parent="mM7fHw1ejmW5WXKp_zyd-1" source="mM7fHw1ejmW5WXKp_zyd-10" target="mM7fHw1ejmW5WXKp_zyd-14" edge="1">
          <mxGeometry relative="1" as="geometry" />
        </mxCell>
        <mxCell id="mM7fHw1ejmW5WXKp_zyd-10" value="MavlinkMission&lt;br&gt;Manager" style="html=1;fontSize=15;" parent="mM7fHw1ejmW5WXKp_zyd-1" vertex="1">
          <mxGeometry x="210" y="490" width="110" height="50" as="geometry" />
        </mxCell>
        <mxCell id="mM7fHw1ejmW5WXKp_zyd-11" value="Dataman&#xa;Module" style="shape=module;align=left;spacingLeft=20;align=center;verticalAlign=top;fontSize=15;" parent="mM7fHw1ejmW5WXKp_zyd-1" vertex="1">
          <mxGeometry x="380" y="210" width="146" height="60" as="geometry" />
        </mxCell>
        <mxCell id="mM7fHw1ejmW5WXKp_zyd-12" value="" style="line;strokeWidth=2;direction=south;html=1;fontSize=15;" parent="mM7fHw1ejmW5WXKp_zyd-1" vertex="1">
          <mxGeometry x="460" y="270" width="10" height="370" as="geometry" />
        </mxCell>
        <mxCell id="mM7fHw1ejmW5WXKp_zyd-13" style="edgeStyle=orthogonalEdgeStyle;rounded=0;orthogonalLoop=1;jettySize=auto;html=1;exitX=1;exitY=0.5;exitDx=0;exitDy=0;entryX=0;entryY=0.7;entryDx=0;entryDy=0;fontSize=15;" parent="mM7fHw1ejmW5WXKp_zyd-1" source="mM7fHw1ejmW5WXKp_zyd-14" target="mM7fHw1ejmW5WXKp_zyd-7" edge="1">
          <mxGeometry relative="1" as="geometry" />
        </mxCell>
        <mxCell id="mM7fHw1ejmW5WXKp_zyd-14" value="dm_write" style="html=1;fontSize=15;labelBorderColor=default;" parent="mM7fHw1ejmW5WXKp_zyd-1" vertex="1">
          <mxGeometry x="410" y="490" width="110" height="50" as="geometry" />
        </mxCell>
        <mxCell id="mM7fHw1ejmW5WXKp_zyd-15" value="msg" style="swimlane;fontStyle=1;align=center;verticalAlign=top;childLayout=stackLayout;horizontal=1;startSize=26;horizontalStack=0;resizeParent=1;resizeParentMax=0;resizeLast=0;collapsible=1;marginBottom=0;fontSize=15;" parent="mM7fHw1ejmW5WXKp_zyd-1" vertex="1">
          <mxGeometry x="-360" y="480" width="370" height="86" as="geometry" />
        </mxCell>
        <mxCell id="mM7fHw1ejmW5WXKp_zyd-16" value="+ msgid: MAVLINK_MSG_ID_MISSION_ITEM_(INT)" style="text;strokeColor=none;fillColor=none;align=left;verticalAlign=top;spacingLeft=4;spacingRight=4;overflow=hidden;rotatable=0;points=[[0,0.5],[1,0.5]];portConstraint=eastwest;fontSize=15;" parent="mM7fHw1ejmW5WXKp_zyd-15" vertex="1">
          <mxGeometry y="26" width="370" height="26" as="geometry" />
        </mxCell>
        <mxCell id="mM7fHw1ejmW5WXKp_zyd-17" value="" style="line;strokeWidth=1;fillColor=none;align=left;verticalAlign=middle;spacingTop=-1;spacingLeft=3;spacingRight=3;rotatable=0;labelPosition=right;points=[];portConstraint=eastwest;fontSize=15;" parent="mM7fHw1ejmW5WXKp_zyd-15" vertex="1">
          <mxGeometry y="52" width="370" height="8" as="geometry" />
        </mxCell>
        <mxCell id="mM7fHw1ejmW5WXKp_zyd-18" value="+ mission_type: MAV_MISSION_TYPE_MISSION" style="text;strokeColor=none;fillColor=none;align=left;verticalAlign=top;spacingLeft=4;spacingRight=4;overflow=hidden;rotatable=0;points=[[0,0.5],[1,0.5]];portConstraint=eastwest;fontSize=15;" parent="mM7fHw1ejmW5WXKp_zyd-15" vertex="1">
          <mxGeometry y="60" width="370" height="26" as="geometry" />
        </mxCell>
        <mxCell id="mM7fHw1ejmW5WXKp_zyd-19" value="call" style="text;html=1;strokeColor=none;fillColor=none;align=center;verticalAlign=middle;whiteSpace=wrap;rounded=0;fontSize=15;" parent="mM7fHw1ejmW5WXKp_zyd-1" vertex="1">
          <mxGeometry x="320" y="490" width="60" height="30" as="geometry" />
        </mxCell>
      </root>
    </mxGraphModel>
  </diagram>
  <diagram id="6jFLOuMLNFQ8vBBDov6A" name="Page-4">
    <mxGraphModel dx="2607" dy="1583" grid="1" gridSize="10" guides="1" tooltips="1" connect="1" arrows="1" fold="1" page="1" pageScale="1" pageWidth="827" pageHeight="1169" math="0" shadow="0">
      <root>
        <mxCell id="0" />
        <mxCell id="1" parent="0" />
        <mxCell id="NitcVo_FI05qCEZd2ZWc-35" value="" style="rounded=1;whiteSpace=wrap;html=1;dashed=1;" parent="1" vertex="1">
          <mxGeometry x="580" y="380" width="160" height="300" as="geometry" />
        </mxCell>
        <mxCell id="NitcVo_FI05qCEZd2ZWc-34" value="" style="rounded=1;whiteSpace=wrap;html=1;dashed=1;" parent="1" vertex="1">
          <mxGeometry x="90" y="340" width="160" height="390" as="geometry" />
        </mxCell>
        <mxCell id="NitcVo_FI05qCEZd2ZWc-29" style="edgeStyle=orthogonalEdgeStyle;rounded=0;orthogonalLoop=1;jettySize=auto;html=1;exitX=1;exitY=0.5;exitDx=0;exitDy=0;entryX=0;entryY=0.5;entryDx=0;entryDy=0;" parent="1" source="NitcVo_FI05qCEZd2ZWc-1" target="NitcVo_FI05qCEZd2ZWc-12" edge="1">
          <mxGeometry relative="1" as="geometry" />
        </mxCell>
        <mxCell id="NitcVo_FI05qCEZd2ZWc-30" style="edgeStyle=orthogonalEdgeStyle;rounded=0;orthogonalLoop=1;jettySize=auto;html=1;exitX=1;exitY=0.5;exitDx=0;exitDy=0;entryX=0;entryY=0.5;entryDx=0;entryDy=0;" parent="1" source="NitcVo_FI05qCEZd2ZWc-1" target="NitcVo_FI05qCEZd2ZWc-13" edge="1">
          <mxGeometry relative="1" as="geometry" />
        </mxCell>
        <mxCell id="NitcVo_FI05qCEZd2ZWc-31" style="edgeStyle=orthogonalEdgeStyle;rounded=0;orthogonalLoop=1;jettySize=auto;html=1;exitX=1;exitY=0.5;exitDx=0;exitDy=0;entryX=0.004;entryY=0.617;entryDx=0;entryDy=0;entryPerimeter=0;" parent="1" source="NitcVo_FI05qCEZd2ZWc-1" target="NitcVo_FI05qCEZd2ZWc-14" edge="1">
          <mxGeometry relative="1" as="geometry" />
        </mxCell>
        <mxCell id="NitcVo_FI05qCEZd2ZWc-32" style="edgeStyle=orthogonalEdgeStyle;rounded=0;orthogonalLoop=1;jettySize=auto;html=1;exitX=1;exitY=0.5;exitDx=0;exitDy=0;entryX=0;entryY=0.5;entryDx=0;entryDy=0;" parent="1" source="NitcVo_FI05qCEZd2ZWc-1" target="NitcVo_FI05qCEZd2ZWc-15" edge="1">
          <mxGeometry relative="1" as="geometry" />
        </mxCell>
        <mxCell id="NitcVo_FI05qCEZd2ZWc-33" style="edgeStyle=orthogonalEdgeStyle;rounded=0;orthogonalLoop=1;jettySize=auto;html=1;exitX=1;exitY=0.5;exitDx=0;exitDy=0;entryX=0;entryY=0.5;entryDx=0;entryDy=0;" parent="1" source="NitcVo_FI05qCEZd2ZWc-1" target="NitcVo_FI05qCEZd2ZWc-6" edge="1">
          <mxGeometry relative="1" as="geometry" />
        </mxCell>
        <mxCell id="NitcVo_FI05qCEZd2ZWc-86" style="edgeStyle=orthogonalEdgeStyle;rounded=0;orthogonalLoop=1;jettySize=auto;html=1;exitX=1;exitY=0.5;exitDx=0;exitDy=0;entryX=0.5;entryY=0;entryDx=0;entryDy=0;endArrow=classic;endFill=1;" parent="1" source="NitcVo_FI05qCEZd2ZWc-1" target="NitcVo_FI05qCEZd2ZWc-83" edge="1">
          <mxGeometry relative="1" as="geometry" />
        </mxCell>
        <mxCell id="NitcVo_FI05qCEZd2ZWc-1" value="uORB" style="rounded=1;whiteSpace=wrap;html=1;" parent="1" vertex="1">
          <mxGeometry x="350" y="485" width="120" height="90" as="geometry" />
        </mxCell>
        <mxCell id="NitcVo_FI05qCEZd2ZWc-2" value="Navigator" style="rounded=1;whiteSpace=wrap;html=1;" parent="1" vertex="1">
          <mxGeometry x="350" y="355" width="120" height="60" as="geometry" />
        </mxCell>
        <mxCell id="NitcVo_FI05qCEZd2ZWc-18" style="edgeStyle=orthogonalEdgeStyle;rounded=0;orthogonalLoop=1;jettySize=auto;html=1;exitX=1;exitY=0.5;exitDx=0;exitDy=0;entryX=0;entryY=0.5;entryDx=0;entryDy=0;" parent="1" source="NitcVo_FI05qCEZd2ZWc-4" target="NitcVo_FI05qCEZd2ZWc-1" edge="1">
          <mxGeometry relative="1" as="geometry" />
        </mxCell>
        <mxCell id="NitcVo_FI05qCEZd2ZWc-4" value="Land_detector" style="rounded=1;whiteSpace=wrap;html=1;" parent="1" vertex="1">
          <mxGeometry x="110" y="370" width="120" height="40" as="geometry" />
        </mxCell>
        <mxCell id="NitcVo_FI05qCEZd2ZWc-23" style="edgeStyle=orthogonalEdgeStyle;rounded=0;orthogonalLoop=1;jettySize=auto;html=1;exitX=1;exitY=0.5;exitDx=0;exitDy=0;entryX=0;entryY=0.5;entryDx=0;entryDy=0;" parent="1" source="NitcVo_FI05qCEZd2ZWc-5" target="NitcVo_FI05qCEZd2ZWc-1" edge="1">
          <mxGeometry relative="1" as="geometry" />
        </mxCell>
        <mxCell id="NitcVo_FI05qCEZd2ZWc-5" value="fw_pos_control_l1" style="rounded=1;whiteSpace=wrap;html=1;" parent="1" vertex="1">
          <mxGeometry x="110" y="415" width="120" height="40" as="geometry" />
        </mxCell>
        <mxCell id="NitcVo_FI05qCEZd2ZWc-6" value="vtol_att_control" style="rounded=1;whiteSpace=wrap;html=1;" parent="1" vertex="1">
          <mxGeometry x="601" y="605" width="120" height="40" as="geometry" />
        </mxCell>
        <mxCell id="NitcVo_FI05qCEZd2ZWc-24" style="edgeStyle=orthogonalEdgeStyle;rounded=0;orthogonalLoop=1;jettySize=auto;html=1;exitX=1;exitY=0.5;exitDx=0;exitDy=0;entryX=0;entryY=0.5;entryDx=0;entryDy=0;" parent="1" source="NitcVo_FI05qCEZd2ZWc-7" target="NitcVo_FI05qCEZd2ZWc-1" edge="1">
          <mxGeometry relative="1" as="geometry" />
        </mxCell>
        <mxCell id="NitcVo_FI05qCEZd2ZWc-7" value="commander" style="rounded=1;whiteSpace=wrap;html=1;" parent="1" vertex="1">
          <mxGeometry x="110" y="460" width="120" height="40" as="geometry" />
        </mxCell>
        <mxCell id="NitcVo_FI05qCEZd2ZWc-25" style="edgeStyle=orthogonalEdgeStyle;rounded=0;orthogonalLoop=1;jettySize=auto;html=1;exitX=1;exitY=0.5;exitDx=0;exitDy=0;entryX=0;entryY=0.5;entryDx=0;entryDy=0;" parent="1" source="NitcVo_FI05qCEZd2ZWc-8" target="NitcVo_FI05qCEZd2ZWc-1" edge="1">
          <mxGeometry relative="1" as="geometry" />
        </mxCell>
        <mxCell id="NitcVo_FI05qCEZd2ZWc-8" value="flight_mode_manager" style="rounded=1;whiteSpace=wrap;html=1;" parent="1" vertex="1">
          <mxGeometry x="110" y="510" width="120" height="40" as="geometry" />
        </mxCell>
        <mxCell id="NitcVo_FI05qCEZd2ZWc-26" style="edgeStyle=orthogonalEdgeStyle;rounded=0;orthogonalLoop=1;jettySize=auto;html=1;exitX=1;exitY=0.5;exitDx=0;exitDy=0;" parent="1" source="NitcVo_FI05qCEZd2ZWc-9" target="NitcVo_FI05qCEZd2ZWc-1" edge="1">
          <mxGeometry relative="1" as="geometry" />
        </mxCell>
        <mxCell id="NitcVo_FI05qCEZd2ZWc-9" value="gimbal" style="rounded=1;whiteSpace=wrap;html=1;" parent="1" vertex="1">
          <mxGeometry x="110" y="560" width="120" height="40" as="geometry" />
        </mxCell>
        <mxCell id="NitcVo_FI05qCEZd2ZWc-28" style="edgeStyle=orthogonalEdgeStyle;rounded=0;orthogonalLoop=1;jettySize=auto;html=1;exitX=1;exitY=0.5;exitDx=0;exitDy=0;entryX=0;entryY=0.5;entryDx=0;entryDy=0;" parent="1" source="NitcVo_FI05qCEZd2ZWc-10" target="NitcVo_FI05qCEZd2ZWc-1" edge="1">
          <mxGeometry relative="1" as="geometry" />
        </mxCell>
        <mxCell id="NitcVo_FI05qCEZd2ZWc-10" value="mavlink" style="rounded=1;whiteSpace=wrap;html=1;" parent="1" vertex="1">
          <mxGeometry x="110" y="610" width="120" height="40" as="geometry" />
        </mxCell>
        <mxCell id="NitcVo_FI05qCEZd2ZWc-20" style="edgeStyle=orthogonalEdgeStyle;rounded=0;orthogonalLoop=1;jettySize=auto;html=1;exitX=1;exitY=0.5;exitDx=0;exitDy=0;entryX=0;entryY=0.5;entryDx=0;entryDy=0;" parent="1" source="NitcVo_FI05qCEZd2ZWc-11" target="NitcVo_FI05qCEZd2ZWc-1" edge="1">
          <mxGeometry relative="1" as="geometry" />
        </mxCell>
        <mxCell id="NitcVo_FI05qCEZd2ZWc-11" value="gps" style="rounded=1;whiteSpace=wrap;html=1;" parent="1" vertex="1">
          <mxGeometry x="110" y="660" width="120" height="40" as="geometry" />
        </mxCell>
        <mxCell id="NitcVo_FI05qCEZd2ZWc-12" value="fixedwing_control" style="rounded=1;whiteSpace=wrap;html=1;" parent="1" vertex="1">
          <mxGeometry x="600" y="405" width="120" height="40" as="geometry" />
        </mxCell>
        <mxCell id="NitcVo_FI05qCEZd2ZWc-13" value="rover_steering_control" style="rounded=1;whiteSpace=wrap;html=1;" parent="1" vertex="1">
          <mxGeometry x="600" y="455" width="120" height="40" as="geometry" />
        </mxCell>
        <mxCell id="NitcVo_FI05qCEZd2ZWc-14" value="rover_pos_control" style="rounded=1;whiteSpace=wrap;html=1;" parent="1" vertex="1">
          <mxGeometry x="601" y="505" width="120" height="40" as="geometry" />
        </mxCell>
        <mxCell id="NitcVo_FI05qCEZd2ZWc-15" value="fw_pos_control_l1" style="rounded=1;whiteSpace=wrap;html=1;" parent="1" vertex="1">
          <mxGeometry x="601" y="555" width="120" height="40" as="geometry" />
        </mxCell>
        <mxCell id="NitcVo_FI05qCEZd2ZWc-36" value="publish" style="text;html=1;align=center;verticalAlign=middle;resizable=0;points=[];autosize=1;strokeColor=none;fillColor=none;" parent="1" vertex="1">
          <mxGeometry x="290" y="530" width="60" height="30" as="geometry" />
        </mxCell>
        <mxCell id="NitcVo_FI05qCEZd2ZWc-38" value="" style="curved=1;endArrow=classic;html=1;rounded=0;exitX=1.015;exitY=0.028;exitDx=0;exitDy=0;exitPerimeter=0;entryX=0.5;entryY=0;entryDx=0;entryDy=0;fillColor=#f8cecc;strokeColor=#b85450;dashed=1;" parent="1" source="NitcVo_FI05qCEZd2ZWc-36" target="NitcVo_FI05qCEZd2ZWc-1" edge="1">
          <mxGeometry width="50" height="50" relative="1" as="geometry">
            <mxPoint x="220" y="500" as="sourcePoint" />
            <mxPoint x="414" y="490" as="targetPoint" />
            <Array as="points">
              <mxPoint x="370" y="530" />
              <mxPoint x="410" y="510" />
            </Array>
          </mxGeometry>
        </mxCell>
        <mxCell id="NitcVo_FI05qCEZd2ZWc-80" value="" style="endArrow=classic;startArrow=classic;html=1;rounded=0;entryX=0.5;entryY=1;entryDx=0;entryDy=0;exitX=0.5;exitY=0;exitDx=0;exitDy=0;" parent="1" source="NitcVo_FI05qCEZd2ZWc-1" target="NitcVo_FI05qCEZd2ZWc-2" edge="1">
          <mxGeometry width="50" height="50" relative="1" as="geometry">
            <mxPoint x="220" y="540" as="sourcePoint" />
            <mxPoint x="270" y="490" as="targetPoint" />
          </mxGeometry>
        </mxCell>
        <mxCell id="NitcVo_FI05qCEZd2ZWc-81" value="controller" style="text;html=1;align=center;verticalAlign=middle;resizable=0;points=[];autosize=1;strokeColor=none;fillColor=none;" parent="1" vertex="1">
          <mxGeometry x="590" y="350" width="70" height="30" as="geometry" />
        </mxCell>
        <mxCell id="NitcVo_FI05qCEZd2ZWc-82" value="" style="curved=1;endArrow=classic;html=1;rounded=0;exitX=0.5;exitY=0;exitDx=0;exitDy=0;entryX=1;entryY=0.5;entryDx=0;entryDy=0;fillColor=#f8cecc;strokeColor=#b85450;dashed=1;" parent="1" source="NitcVo_FI05qCEZd2ZWc-1" target="NitcVo_FI05qCEZd2ZWc-1" edge="1">
          <mxGeometry width="50" height="50" relative="1" as="geometry">
            <mxPoint x="360.89999999999964" y="540.8400000000001" as="sourcePoint" />
            <mxPoint x="420" y="495" as="targetPoint" />
            <Array as="points">
              <mxPoint x="410" y="510" />
              <mxPoint x="440" y="530" />
            </Array>
          </mxGeometry>
        </mxCell>
        <mxCell id="NitcVo_FI05qCEZd2ZWc-83" value="logger" style="rounded=1;whiteSpace=wrap;html=1;" parent="1" vertex="1">
          <mxGeometry x="350" y="650" width="120" height="60" as="geometry" />
        </mxCell>
        <mxCell id="NitcVo_FI05qCEZd2ZWc-88" value="subscribe" style="text;html=1;align=center;verticalAlign=middle;resizable=0;points=[];autosize=1;strokeColor=none;fillColor=none;" parent="1" vertex="1">
          <mxGeometry x="470" y="505" width="70" height="30" as="geometry" />
        </mxCell>
      </root>
    </mxGraphModel>
  </diagram>
  <diagram id="4b13b47x10pL8hT0Nx5X" name="Page-5">
    <mxGraphModel dx="1650" dy="500" grid="1" gridSize="10" guides="1" tooltips="1" connect="1" arrows="1" fold="1" page="1" pageScale="1" pageWidth="827" pageHeight="1169" math="0" shadow="0">
      <root>
        <mxCell id="0" />
        <mxCell id="1" parent="0" />
        <mxCell id="v8Dy5n31rUUzjcUAl40p-1" value="mavlink&lt;br style=&quot;font-size: 15px;&quot;&gt;message" style="text;html=1;align=center;verticalAlign=middle;resizable=0;points=[];autosize=1;strokeColor=none;fillColor=none;fontSize=15;" vertex="1" parent="1">
          <mxGeometry x="41.25" y="597.5" width="80" height="50" as="geometry" />
        </mxCell>
        <mxCell id="v8Dy5n31rUUzjcUAl40p-2" style="edgeStyle=orthogonalEdgeStyle;rounded=0;orthogonalLoop=1;jettySize=auto;html=1;exitX=1;exitY=0.7;exitDx=0;exitDy=0;entryX=0;entryY=0.5;entryDx=0;entryDy=0;fontSize=15;" edge="1" parent="1" source="v8Dy5n31rUUzjcUAl40p-3" target="v8Dy5n31rUUzjcUAl40p-11">
          <mxGeometry relative="1" as="geometry">
            <Array as="points">
              <mxPoint x="111" y="560" />
            </Array>
          </mxGeometry>
        </mxCell>
        <mxCell id="v8Dy5n31rUUzjcUAl40p-3" value="" style="shape=message;html=1;whiteSpace=wrap;html=1;outlineConnect=0;fontSize=15;" vertex="1" parent="1">
          <mxGeometry x="51.25" y="542.5" width="60" height="50" as="geometry" />
        </mxCell>
        <mxCell id="v8Dy5n31rUUzjcUAl40p-4" value="Mavlink&#xa;Module" style="shape=module;align=left;spacingLeft=20;align=center;verticalAlign=top;fontSize=15;" vertex="1" parent="1">
          <mxGeometry x="174" y="360" width="146" height="60" as="geometry" />
        </mxCell>
        <mxCell id="v8Dy5n31rUUzjcUAl40p-5" value="Integrity&#xa;Module" style="shape=module;align=left;spacingLeft=20;align=center;verticalAlign=top;fontSize=15;" vertex="1" parent="1">
          <mxGeometry x="366" y="360" width="146" height="60" as="geometry" />
        </mxCell>
        <mxCell id="v8Dy5n31rUUzjcUAl40p-6" value="" style="line;strokeWidth=2;direction=south;html=1;fontSize=15;" vertex="1" parent="1">
          <mxGeometry x="248" y="420" width="10" height="330" as="geometry" />
        </mxCell>
        <mxCell id="v8Dy5n31rUUzjcUAl40p-7" value="" style="line;strokeWidth=2;direction=south;html=1;fontSize=15;" vertex="1" parent="1">
          <mxGeometry x="434" y="420" width="10" height="330" as="geometry" />
        </mxCell>
        <mxCell id="v8Dy5n31rUUzjcUAl40p-36" style="edgeStyle=orthogonalEdgeStyle;rounded=0;orthogonalLoop=1;jettySize=auto;html=1;exitX=0;exitY=0.7;exitDx=0;exitDy=0;entryX=0.75;entryY=0;entryDx=0;entryDy=0;" edge="1" parent="1" source="v8Dy5n31rUUzjcUAl40p-8" target="v8Dy5n31rUUzjcUAl40p-29">
          <mxGeometry relative="1" as="geometry">
            <Array as="points">
              <mxPoint x="700" y="521" />
              <mxPoint x="700" y="560" />
              <mxPoint x="473" y="560" />
            </Array>
          </mxGeometry>
        </mxCell>
        <mxCell id="v8Dy5n31rUUzjcUAl40p-8" value="" style="shape=datastore;whiteSpace=wrap;html=1;fontSize=15;" vertex="1" parent="1">
          <mxGeometry x="730" y="479" width="60" height="60" as="geometry" />
        </mxCell>
        <mxCell id="v8Dy5n31rUUzjcUAl40p-10" value="dataman" style="text;html=1;strokeColor=none;fillColor=none;align=center;verticalAlign=middle;whiteSpace=wrap;rounded=0;fontSize=15;" vertex="1" parent="1">
          <mxGeometry x="730" y="545.5" width="60" height="30" as="geometry" />
        </mxCell>
        <mxCell id="v8Dy5n31rUUzjcUAl40p-34" style="edgeStyle=orthogonalEdgeStyle;rounded=0;orthogonalLoop=1;jettySize=auto;html=1;exitX=1;exitY=0.25;exitDx=0;exitDy=0;entryX=0;entryY=0.5;entryDx=0;entryDy=0;" edge="1" parent="1" source="v8Dy5n31rUUzjcUAl40p-11" target="v8Dy5n31rUUzjcUAl40p-16">
          <mxGeometry relative="1" as="geometry" />
        </mxCell>
        <mxCell id="v8Dy5n31rUUzjcUAl40p-11" value="MavlinkMission&lt;br&gt;Manager" style="html=1;fontSize=15;" vertex="1" parent="1">
          <mxGeometry x="210" y="460" width="110" height="200" as="geometry" />
        </mxCell>
        <mxCell id="v8Dy5n31rUUzjcUAl40p-13" value="Dataman&#xa;Module" style="shape=module;align=left;spacingLeft=20;align=center;verticalAlign=top;fontSize=15;" vertex="1" parent="1">
          <mxGeometry x="540" y="360" width="146" height="60" as="geometry" />
        </mxCell>
        <mxCell id="v8Dy5n31rUUzjcUAl40p-14" value="" style="line;strokeWidth=2;direction=south;html=1;fontSize=15;" vertex="1" parent="1">
          <mxGeometry x="608" y="410" width="10" height="330" as="geometry" />
        </mxCell>
        <mxCell id="v8Dy5n31rUUzjcUAl40p-35" style="edgeStyle=orthogonalEdgeStyle;rounded=0;orthogonalLoop=1;jettySize=auto;html=1;exitX=1;exitY=0.5;exitDx=0;exitDy=0;entryX=0;entryY=0.5;entryDx=0;entryDy=0;" edge="1" parent="1" source="v8Dy5n31rUUzjcUAl40p-16" target="v8Dy5n31rUUzjcUAl40p-8">
          <mxGeometry relative="1" as="geometry" />
        </mxCell>
        <mxCell id="v8Dy5n31rUUzjcUAl40p-16" value="dm_write" style="html=1;fontSize=15;labelBorderColor=default;" vertex="1" parent="1">
          <mxGeometry x="558" y="484" width="110" height="50" as="geometry" />
        </mxCell>
        <mxCell id="v8Dy5n31rUUzjcUAl40p-22" value="call" style="text;html=1;strokeColor=none;fillColor=none;align=center;verticalAlign=middle;whiteSpace=wrap;rounded=0;fontSize=15;" vertex="1" parent="1">
          <mxGeometry x="320" y="480" width="60" height="30" as="geometry" />
        </mxCell>
        <mxCell id="v8Dy5n31rUUzjcUAl40p-25" value="msg" style="swimlane;fontStyle=1;align=center;verticalAlign=top;childLayout=stackLayout;horizontal=1;startSize=26;horizontalStack=0;resizeParent=1;resizeParentMax=0;resizeLast=0;collapsible=1;marginBottom=0;fontSize=15;" vertex="1" parent="1">
          <mxGeometry x="-170" y="545.5" width="190" height="52" as="geometry" />
        </mxCell>
        <mxCell id="v8Dy5n31rUUzjcUAl40p-26" value="+ msgid:MISSION_*" style="text;strokeColor=none;fillColor=none;align=left;verticalAlign=top;spacingLeft=4;spacingRight=4;overflow=hidden;rotatable=0;points=[[0,0.5],[1,0.5]];portConstraint=eastwest;fontSize=15;" vertex="1" parent="v8Dy5n31rUUzjcUAl40p-25">
          <mxGeometry y="26" width="190" height="26" as="geometry" />
        </mxCell>
        <mxCell id="v8Dy5n31rUUzjcUAl40p-27" style="edgeStyle=orthogonalEdgeStyle;rounded=0;orthogonalLoop=1;jettySize=auto;html=1;exitX=1;exitY=0.5;exitDx=0;exitDy=0;entryX=0;entryY=0.5;entryDx=0;entryDy=0;" edge="1" parent="1" target="v8Dy5n31rUUzjcUAl40p-29">
          <mxGeometry relative="1" as="geometry">
            <mxPoint x="320" y="595" as="sourcePoint" />
            <Array as="points">
              <mxPoint x="320" y="640" />
            </Array>
          </mxGeometry>
        </mxCell>
        <mxCell id="v8Dy5n31rUUzjcUAl40p-28" style="edgeStyle=orthogonalEdgeStyle;rounded=0;orthogonalLoop=1;jettySize=auto;html=1;exitX=1;exitY=0.5;exitDx=0;exitDy=0;entryX=0;entryY=0.5;entryDx=0;entryDy=0;entryPerimeter=0;" edge="1" parent="1" source="v8Dy5n31rUUzjcUAl40p-29" target="v8Dy5n31rUUzjcUAl40p-30">
          <mxGeometry relative="1" as="geometry">
            <mxPoint x="720" y="595" as="targetPoint" />
          </mxGeometry>
        </mxCell>
        <mxCell id="v8Dy5n31rUUzjcUAl40p-29" value="hmac_add" style="html=1;fontSize=15;" vertex="1" parent="1">
          <mxGeometry x="390" y="615" width="110" height="50" as="geometry" />
        </mxCell>
        <mxCell id="v8Dy5n31rUUzjcUAl40p-30" value="HMAC&lt;br&gt;file" style="shape=note;whiteSpace=wrap;html=1;backgroundOutline=1;darkOpacity=0.05;size=21;" vertex="1" parent="1">
          <mxGeometry x="730" y="600" width="60" height="80" as="geometry" />
        </mxCell>
      </root>
    </mxGraphModel>
  </diagram>
</mxfile>
